{
    "asset" : {
        "copyright" : "zeili",
        "generator" : "Khronos glTF Blender I/O v1.5.17",
        "version" : "2.0"
    },
    "extensionsUsed" : [
        "KHR_lights_punctual"
    ],
    "extensionsRequired" : [
        "KHR_lights_punctual"
    ],
    "extensions" : {
        "KHR_lights_punctual" : {
            "lights" : [
                {
                    "color" : [
                        0.5316194891929626,
                        0.5289006233215332,
                        1
                    ],
                    "intensity" : 2,
                    "type" : "directional",
                    "name" : "Spot.002"
                }
            ]
        }
    },
    "scene" : 0,
    "scenes" : [
        {
            "extras" : {
                "glTF2ExportSettings" : {
                    "export_animations" : 1,
                    "export_apply" : 1,
                    "export_cameras" : 1,
                    "export_colors" : 1,
                    "export_copyright" : "zeili",
                    "export_draco_mesh_compression_enable" : 0,
                    "export_extras" : 1,
                    "export_format" : "GLTF_EMBEDDED",
                    "export_frame_range" : 0,
                    "export_frame_step" : 1,
                    "export_image_format" : "AUTO",
                    "export_lights" : 1,
                    "export_materials" : "EXPORT",
                    "export_morph" : 1,
                    "export_normals" : 1,
                    "export_skins" : 1,
                    "export_tangents" : 1,
                    "export_texcoords" : 1,
                    "export_yup" : 0,
                    "use_selection" : 0
                }
            },
            "name" : "Scene",
            "nodes" : [
                0,
                1,
                2,
                3
            ]
        }
    ],
    "nodes" : [
        {
            "mesh" : 0,
            "name" : "GridCenter",
            "scale" : [
                3,
                5,
                3
            ]
        },
        {
            "extensions" : {
                "KHR_lights_punctual" : {
                    "light" : 0
                }
            },
            "name" : "Spot.001",
            "rotation" : [
                0.19315822422504425,
                0.01935628056526184,
                -0.1239224299788475,
                0.9731178879737854
            ],
            "translation" : [
                0,
                -5,
                4
            ]
        },
        {
            "camera" : 0,
            "name" : "Camera",
            "translation" : [
                0,
                0,
                10
            ]
        },
        {
            "mesh" : 1,
            "name" : "path22",
            "scale" : [
                10,
                10,
                10
            ]
        }
    ],
    "cameras" : [
        {
            "name" : "Camera.001",
            "perspective" : {
                "aspectRatio" : 1.7777777777777777,
                "yfov" : 0.513038796505747,
                "zfar" : 1000,
                "znear" : 0.10000000149011612
            },
            "type" : "perspective"
        }
    ],
    "materials" : [
        {
            "doubleSided" : true,
            "name" : "Material.005",
            "pbrMetallicRoughness" : {
                "baseColorTexture" : {
                    "index" : 0
                },
                "metallicFactor" : 0,
                "roughnessFactor" : 0.5
            }
        },
        {
            "doubleSided" : true,
            "name" : "SVGMat.001",
            "pbrMetallicRoughness" : {
                "baseColorFactor" : [
                    1,
                    1,
                    1,
                    1
                ],
                "metallicFactor" : 1,
                "roughnessFactor" : 0.20625001192092896
            }
        }
    ],
    "meshes" : [
        {
            "name" : "Grid.006",
            "primitives" : [
                {
                    "attributes" : {
                        "POSITION" : 0,
                        "NORMAL" : 1,
                        "TANGENT" : 2,
                        "TEXCOORD_0" : 3
                    },
                    "indices" : 4,
                    "material" : 0
                }
            ]
        },
        {
            "name" : "path22",
            "primitives" : [
                {
                    "attributes" : {
                        "POSITION" : 5,
                        "NORMAL" : 6,
                        "TANGENT" : 7,
                        "TEXCOORD_0" : 8
                    },
                    "indices" : 9,
                    "material" : 1
                }
            ]
        }
    ],
    "textures" : [
        {
            "sampler" : 0,
            "source" : 0
        }
    ],
    "images" : [
        {
            "bufferView" : 5,
            "mimeType" : "image/png",
            "name" : "Z31L1"
        }
    ],
    "accessors" : [
        {
            "bufferView" : 0,
            "componentType" : 5126,
            "count" : 963,
            "max" : [
                3,
                1,
                0.1292029321193695
            ],
            "min" : [
                -3,
                -1,
                -0.0961734801530838
            ],
            "type" : "VEC3"
        },
        {
            "bufferView" : 1,
            "componentType" : 5126,
            "count" : 963,
            "type" : "VEC3"
        },
        {
            "bufferView" : 2,
            "componentType" : 5126,
            "count" : 963,
            "type" : "VEC4"
        },
        {
            "bufferView" : 3,
            "componentType" : 5126,
            "count" : 963,
            "type" : "VEC2"
        },
        {
            "bufferView" : 4,
            "componentType" : 5123,
            "count" : 1458,
            "type" : "SCALAR"
        },
        {
            "bufferView" : 6,
            "componentType" : 5126,
            "count" : 26019,
            "max" : [
                0.42981186509132385,
                0.04281719774007797,
                0.019999999552965164
            ],
            "min" : [
                -0.4237144887447357,
                -0.04192941263318062,
                -0.019999999552965164
            ],
            "type" : "VEC3"
        },
        {
            "bufferView" : 7,
            "componentType" : 5126,
            "count" : 26019,
            "type" : "VEC3"
        },
        {
            "bufferView" : 8,
            "componentType" : 5126,
            "count" : 26019,
            "type" : "VEC4"
        },
        {
            "bufferView" : 9,
            "componentType" : 5126,
            "count" : 26019,
            "type" : "VEC2"
        },
        {
            "bufferView" : 10,
            "componentType" : 5123,
            "count" : 53778,
            "type" : "SCALAR"
        }
    ],
    "bufferViews" : [
        {
            "buffer" : 0,
            "byteLength" : 11556,
            "byteOffset" : 0
        },
        {
            "buffer" : 0,
            "byteLength" : 11556,
            "byteOffset" : 11556
        },
        {
            "buffer" : 0,
            "byteLength" : 15408,
            "byteOffset" : 23112
        },
        {
            "buffer" : 0,
            "byteLength" : 7704,
            "byteOffset" : 38520
        },
        {
            "buffer" : 0,
            "byteLength" : 2916,
            "byteOffset" : 46224
        },
        {
            "buffer" : 0,
            "byteLength" : 864024,
            "byteOffset" : 49140
        },
        {
            "buffer" : 0,
            "byteLength" : 312228,
            "byteOffset" : 913164
        },
        {
            "buffer" : 0,
            "byteLength" : 312228,
            "byteOffset" : 1225392
        },
        {
            "buffer" : 0,
            "byteLength" : 416304,
            "byteOffset" : 1537620
        },
        {
            "buffer" : 0,
            "byteLength" : 208152,
            "byteOffset" : 1953924
        },
        {
            "buffer" : 0,
            "byteLength" : 107556,
            "byteOffset" : 2162076
        }
    ],
    "samplers" : [
        {
            "magFilter" : 9729,
            "minFilter" : 9987
        }
    ],
    "buffers" : [
        {
            "byteLength" : 2269632,
            "uri" : "data:application/octet-stream;base64,"
        }
    ]
}
