{
    "asset" : {
        "copyright" : "zeili",
        "generator" : "Khronos glTF Blender I/O v1.5.17",
        "version" : "2.0"
    },
    "extensionsUsed" : [
        "KHR_lights_punctual"
    ],
    "extensionsRequired" : [
        "KHR_lights_punctual"
    ],
    "extensions" : {
        "KHR_lights_punctual" : {
            "lights" : [
                {
                    "color" : [
                        0.613303005695343,
                        0.6216738820075989,
                        1
                    ],
                    "intensity" : 2,
                    "type" : "directional",
                    "name" : "Spot.002"
                },
                {
                    "color" : [
                        0.613303005695343,
                        0.6216738820075989,
                        1
                    ],
                    "intensity" : 2,
                    "type" : "directional",
                    "name" : "Spot.003"
                },
                {
                    "color" : [
                        0.613303005695343,
                        0.6216738820075989,
                        1
                    ],
                    "intensity" : 2,
                    "type" : "directional",
                    "name" : "Spot.004"
                },
                {
                    "color" : [
                        0.613303005695343,
                        0.6216738820075989,
                        1
                    ],
                    "intensity" : 2,
                    "type" : "directional",
                    "name" : "Spot.005"
                },
                {
                    "color" : [
                        0.613303005695343,
                        0.6216738820075989,
                        1
                    ],
                    "intensity" : 2,
                    "type" : "directional",
                    "name" : "Spot.006"
                }
            ]
        }
    },
    "scene" : 0,
    "scenes" : [
        {
            "extras" : {
                "glTF2ExportSettings" : {
                    "export_animations" : 1,
                    "export_apply" : 1,
                    "export_cameras" : 1,
                    "export_colors" : 1,
                    "export_copyright" : "zeili",
                    "export_draco_mesh_compression_enable" : 0,
                    "export_extras" : 1,
                    "export_format" : "GLTF_EMBEDDED",
                    "export_frame_range" : 0,
                    "export_frame_step" : 1,
                    "export_image_format" : "AUTO",
                    "export_lights" : 1,
                    "export_materials" : "EXPORT",
                    "export_morph" : 1,
                    "export_normals" : 1,
                    "export_skins" : 1,
                    "export_tangents" : 1,
                    "export_texcoords" : 1,
                    "export_yup" : 0,
                    "use_selection" : 0
                }
            },
            "name" : "Scene",
            "nodes" : [
                0,
                1,
                2,
                3,
                4,
                5,
                6,
                7,
                8,
                9,
                10,
                11
            ]
        }
    ],
    "nodes" : [
        {
            "mesh" : 0,
            "name" : "GridCenter",
            "rotation" : [
                0,
                0.7071068286895752,
                0,
                0.7071068286895752
            ],
            "scale" : [
                3,
                5,
                3
            ],
            "translation" : [
                -9,
                0,
                9
            ]
        },
        {
            "extensions" : {
                "KHR_lights_punctual" : {
                    "light" : 0
                }
            },
            "name" : "Spot.001",
            "rotation" : [
                0.6427876353263855,
                0,
                0,
                0.766044557094574
            ],
            "scale" : [
                10,
                10,
                10
            ],
            "translation" : [
                0,
                0,
                4
            ]
        },
        {
            "camera" : 0,
            "name" : "Camera",
            "translation" : [
                0,
                0,
                10
            ]
        },
        {
            "mesh" : 1,
            "name" : "GridCenter.001",
            "rotation" : [
                0.7071068286895752,
                0,
                0,
                0.7071068286895752
            ],
            "scale" : [
                3,
                5,
                3
            ],
            "translation" : [
                0,
                5,
                5
            ]
        },
        {
            "mesh" : 2,
            "name" : "GridCenter.002",
            "rotation" : [
                0.7071068286895752,
                0,
                0,
                0.7071068286895752
            ],
            "scale" : [
                3,
                5,
                3
            ],
            "translation" : [
                0,
                -5,
                5
            ]
        },
        {
            "mesh" : 3,
            "name" : "GridCenter.003",
            "scale" : [
                3,
                5,
                3
            ]
        },
        {
            "mesh" : 4,
            "name" : "GridCenter.004",
            "rotation" : [
                0,
                0.7071068286895752,
                0,
                0.7071068286895752
            ],
            "scale" : [
                3,
                5,
                3
            ],
            "translation" : [
                9,
                0,
                9
            ]
        },
        {
            "extensions" : {
                "KHR_lights_punctual" : {
                    "light" : 1
                }
            },
            "name" : "Spot.002",
            "rotation" : [
                -0.6427876353263855,
                0,
                0,
                0.766044557094574
            ],
            "scale" : [
                10,
                10,
                10
            ],
            "translation" : [
                0,
                -3,
                4
            ]
        },
        {
            "extensions" : {
                "KHR_lights_punctual" : {
                    "light" : 2
                }
            },
            "name" : "Spot.003",
            "rotation" : [
                0.19080902636051178,
                0,
                0,
                0.9816272854804993
            ],
            "scale" : [
                10,
                10,
                10
            ],
            "translation" : [
                0,
                -3,
                4
            ]
        },
        {
            "extensions" : {
                "KHR_lights_punctual" : {
                    "light" : 3
                }
            },
            "name" : "Spot.004",
            "rotation" : [
                0,
                0.6427876353263855,
                0,
                0.766044557094574
            ],
            "scale" : [
                10,
                10,
                10
            ],
            "translation" : [
                0,
                0,
                4
            ]
        },
        {
            "extensions" : {
                "KHR_lights_punctual" : {
                    "light" : 4
                }
            },
            "name" : "Spot.005",
            "rotation" : [
                0,
                -0.6427876353263855,
                0,
                0.766044557094574
            ],
            "scale" : [
                10,
                10,
                10
            ],
            "translation" : [
                0,
                0,
                4
            ]
        },
        {
            "mesh" : 5,
            "name" : "path36",
            "scale" : [
                10,
                10,
                10
            ],
            "translation" : [
                0.0015147924423217773,
                0.009749650955200195,
                0
            ]
        }
    ],
    "cameras" : [
        {
            "name" : "Camera.001",
            "perspective" : {
                "aspectRatio" : 1.7777777777777777,
                "yfov" : 0.513038796505747,
                "zfar" : 1000,
                "znear" : 0.10000000149011612
            },
            "type" : "perspective"
        }
    ],
    "materials" : [
        {
            "doubleSided" : true,
            "name" : "Material.005",
            "pbrMetallicRoughness" : {
                "baseColorFactor" : [
                    0,
                    0,
                    0,
                    1
                ],
                "metallicFactor" : 0,
                "roughnessFactor" : 0.5027397274971008
            }
        },
        {
            "doubleSided" : true,
            "name" : "Material.001",
            "pbrMetallicRoughness" : {
                "baseColorFactor" : [
                    0,
                    0,
                    0,
                    1
                ],
                "metallicFactor" : 0,
                "roughnessFactor" : 0.5027397274971008
            }
        },
        {
            "doubleSided" : true,
            "name" : "Material.006",
            "pbrMetallicRoughness" : {
                "baseColorFactor" : [
                    0,
                    0,
                    0,
                    1
                ],
                "metallicFactor" : 0,
                "roughnessFactor" : 0.5027397274971008
            }
        },
        {
            "doubleSided" : true,
            "name" : "Material.007",
            "pbrMetallicRoughness" : {
                "baseColorFactor" : [
                    0,
                    0,
                    0,
                    1
                ],
                "metallicFactor" : 0,
                "roughnessFactor" : 0.5027397274971008
            }
        },
        {
            "doubleSided" : true,
            "name" : "Material.008",
            "pbrMetallicRoughness" : {
                "baseColorFactor" : [
                    0,
                    0,
                    0,
                    1
                ],
                "metallicFactor" : 0,
                "roughnessFactor" : 0.5027397274971008
            }
        },
        {
            "doubleSided" : true,
            "name" : "SVGMat.002",
            "pbrMetallicRoughness" : {
                "baseColorFactor" : [
                    0,
                    0,
                    0,
                    1
                ],
                "metallicFactor" : 0,
                "roughnessFactor" : 0.4000000059604645
            }
        }
    ],
    "meshes" : [
        {
            "name" : "Grid.006",
            "primitives" : [
                {
                    "attributes" : {
                        "POSITION" : 0,
                        "NORMAL" : 1,
                        "TANGENT" : 2,
                        "TEXCOORD_0" : 3
                    },
                    "indices" : 4,
                    "material" : 0
                }
            ]
        },
        {
            "name" : "Grid.001",
            "primitives" : [
                {
                    "attributes" : {
                        "POSITION" : 5,
                        "NORMAL" : 6,
                        "TANGENT" : 7,
                        "TEXCOORD_0" : 8
                    },
                    "indices" : 4,
                    "material" : 1
                }
            ]
        },
        {
            "name" : "Grid.002",
            "primitives" : [
                {
                    "attributes" : {
                        "POSITION" : 9,
                        "NORMAL" : 10,
                        "TANGENT" : 11,
                        "TEXCOORD_0" : 12
                    },
                    "indices" : 4,
                    "material" : 2
                }
            ]
        },
        {
            "name" : "Grid.003",
            "primitives" : [
                {
                    "attributes" : {
                        "POSITION" : 13,
                        "NORMAL" : 14,
                        "TANGENT" : 15,
                        "TEXCOORD_0" : 16
                    },
                    "indices" : 4,
                    "material" : 3
                }
            ]
        },
        {
            "name" : "Grid.004",
            "primitives" : [
                {
                    "attributes" : {
                        "POSITION" : 17,
                        "NORMAL" : 18,
                        "TANGENT" : 19,
                        "TEXCOORD_0" : 20
                    },
                    "indices" : 4,
                    "material" : 4
                }
            ]
        },
        {
            "name" : "path36",
            "primitives" : [
                {
                    "attributes" : {
                        "POSITION" : 21,
                        "NORMAL" : 22,
                        "TANGENT" : 23,
                        "TEXCOORD_0" : 24
                    },
                    "indices" : 25,
                    "material" : 5
                }
            ]
        }
    ],
    "accessors" : [
        {
            "bufferView" : 0,
            "componentType" : 5126,
            "count" : 963,
            "max" : [
                3,
                1,
                0.1292029321193695
            ],
            "min" : [
                -3,
                -1,
                -0.0961734801530838
            ],
            "type" : "VEC3"
        },
        {
            "bufferView" : 1,
            "componentType" : 5126,
            "count" : 963,
            "type" : "VEC3"
        },
        {
            "bufferView" : 2,
            "componentType" : 5126,
            "count" : 963,
            "type" : "VEC4"
        },
        {
            "bufferView" : 3,
            "componentType" : 5126,
            "count" : 963,
            "type" : "VEC2"
        },
        {
            "bufferView" : 4,
            "componentType" : 5123,
            "count" : 1458,
            "type" : "SCALAR"
        },
        {
            "bufferView" : 5,
            "componentType" : 5126,
            "count" : 963,
            "max" : [
                3,
                1,
                0.1292029321193695
            ],
            "min" : [
                -3,
                -1,
                -0.0961734801530838
            ],
            "type" : "VEC3"
        },
        {
            "bufferView" : 6,
            "componentType" : 5126,
            "count" : 963,
            "type" : "VEC3"
        },
        {
            "bufferView" : 7,
            "componentType" : 5126,
            "count" : 963,
            "type" : "VEC4"
        },
        {
            "bufferView" : 8,
            "componentType" : 5126,
            "count" : 963,
            "type" : "VEC2"
        },
        {
            "bufferView" : 9,
            "componentType" : 5126,
            "count" : 963,
            "max" : [
                3,
                1,
                0.1292029321193695
            ],
            "min" : [
                -3,
                -1,
                -0.0961734801530838
            ],
            "type" : "VEC3"
        },
        {
            "bufferView" : 10,
            "componentType" : 5126,
            "count" : 963,
            "type" : "VEC3"
        },
        {
            "bufferView" : 11,
            "componentType" : 5126,
            "count" : 963,
            "type" : "VEC4"
        },
        {
            "bufferView" : 12,
            "componentType" : 5126,
            "count" : 963,
            "type" : "VEC2"
        },
        {
            "bufferView" : 13,
            "componentType" : 5126,
            "count" : 963,
            "max" : [
                3,
                1,
                0.1292029321193695
            ],
            "min" : [
                -3,
                -1,
                -0.0961734801530838
            ],
            "type" : "VEC3"
        },
        {
            "bufferView" : 14,
            "componentType" : 5126,
            "count" : 963,
            "type" : "VEC3"
        },
        {
            "bufferView" : 15,
            "componentType" : 5126,
            "count" : 963,
            "type" : "VEC4"
        },
        {
            "bufferView" : 16,
            "componentType" : 5126,
            "count" : 963,
            "type" : "VEC2"
        },
        {
            "bufferView" : 17,
            "componentType" : 5126,
            "count" : 963,
            "max" : [
                3,
                1,
                0.1292029321193695
            ],
            "min" : [
                -3,
                -1,
                -0.0961734801530838
            ],
            "type" : "VEC3"
        },
        {
            "bufferView" : 18,
            "componentType" : 5126,
            "count" : 963,
            "type" : "VEC3"
        },
        {
            "bufferView" : 19,
            "componentType" : 5126,
            "count" : 963,
            "type" : "VEC4"
        },
        {
            "bufferView" : 20,
            "componentType" : 5126,
            "count" : 963,
            "type" : "VEC2"
        },
        {
            "bufferView" : 21,
            "componentType" : 5126,
            "count" : 13839,
            "max" : [
                0.08573614060878754,
                0.06631363183259964,
                0.019999999552965164
            ],
            "min" : [
                -0.09031660109758377,
                -0.07486027479171753,
                -0.019999999552965164
            ],
            "type" : "VEC3"
        },
        {
            "bufferView" : 22,
            "componentType" : 5126,
            "count" : 13839,
            "type" : "VEC3"
        },
        {
            "bufferView" : 23,
            "componentType" : 5126,
            "count" : 13839,
            "type" : "VEC4"
        },
        {
            "bufferView" : 24,
            "componentType" : 5126,
            "count" : 13839,
            "type" : "VEC2"
        },
        {
            "bufferView" : 25,
            "componentType" : 5123,
            "count" : 25200,
            "type" : "SCALAR"
        }
    ],
    "bufferViews" : [
        {
            "buffer" : 0,
            "byteLength" : 11556,
            "byteOffset" : 0
        },
        {
            "buffer" : 0,
            "byteLength" : 11556,
            "byteOffset" : 11556
        },
        {
            "buffer" : 0,
            "byteLength" : 15408,
            "byteOffset" : 23112
        },
        {
            "buffer" : 0,
            "byteLength" : 7704,
            "byteOffset" : 38520
        },
        {
            "buffer" : 0,
            "byteLength" : 2916,
            "byteOffset" : 46224
        },
        {
            "buffer" : 0,
            "byteLength" : 11556,
            "byteOffset" : 49140
        },
        {
            "buffer" : 0,
            "byteLength" : 11556,
            "byteOffset" : 60696
        },
        {
            "buffer" : 0,
            "byteLength" : 15408,
            "byteOffset" : 72252
        },
        {
            "buffer" : 0,
            "byteLength" : 7704,
            "byteOffset" : 87660
        },
        {
            "buffer" : 0,
            "byteLength" : 11556,
            "byteOffset" : 95364
        },
        {
            "buffer" : 0,
            "byteLength" : 11556,
            "byteOffset" : 106920
        },
        {
            "buffer" : 0,
            "byteLength" : 15408,
            "byteOffset" : 118476
        },
        {
            "buffer" : 0,
            "byteLength" : 7704,
            "byteOffset" : 133884
        },
        {
            "buffer" : 0,
            "byteLength" : 11556,
            "byteOffset" : 141588
        },
        {
            "buffer" : 0,
            "byteLength" : 11556,
            "byteOffset" : 153144
        },
        {
            "buffer" : 0,
            "byteLength" : 15408,
            "byteOffset" : 164700
        },
        {
            "buffer" : 0,
            "byteLength" : 7704,
            "byteOffset" : 180108
        },
        {
            "buffer" : 0,
            "byteLength" : 11556,
            "byteOffset" : 187812
        },
        {
            "buffer" : 0,
            "byteLength" : 11556,
            "byteOffset" : 199368
        },
        {
            "buffer" : 0,
            "byteLength" : 15408,
            "byteOffset" : 210924
        },
        {
            "buffer" : 0,
            "byteLength" : 7704,
            "byteOffset" : 226332
        },
        {
            "buffer" : 0,
            "byteLength" : 166068,
            "byteOffset" : 234036
        },
        {
            "buffer" : 0,
            "byteLength" : 166068,
            "byteOffset" : 400104
        },
        {
            "buffer" : 0,
            "byteLength" : 221424,
            "byteOffset" : 566172
        },
        {
            "buffer" : 0,
            "byteLength" : 110712,
            "byteOffset" : 787596
        },
        {
            "buffer" : 0,
            "byteLength" : 50400,
            "byteOffset" : 898308
        }
    ],
    "buffers" : [
        {
            "byteLength" : 948708,
            "uri" : "data:application/octet-stream;base64,"
        }
    ]
}
